<svg xmlns="http://www.w3.org/2000/svg" viewBox="0 0 920 200" font-family="ui-monospace, Menlo, Consolas, monospace"><rect width="920" height="200" fill="#ffffff"/><text x="40.0" y="18.0" font-size="13" fill="#16202b" font-weight="600">Practice 4 — random walk + drift</text><line x1="40.0" y1="164.9" x2="904.0" y2="164.9" stroke="#e7ecf1" stroke-width="1"/><line x1="40.0" y1="177.8" x2="904.0" y2="44.6" stroke="#0b1f3a" stroke-width="1.6" stroke-dasharray="6 5"/><path d="M  40.0 157.2 L 42.9 156.8 L 45.8 157.6 L 48.7 156.9 L 51.6 156.4 L 54.4 158.8 L 57.3 158.2 L 60.2 159.7 L 63.1 161.3 L 66.0 160.1 L 68.9 159.6 L 71.8 161.9 L 74.7 163.7 L 77.6 164.9 L 80.5 164.4 L 83.3 162.5 L 86.2 163.1 L 89.1 163.7 L 92.0 163.7 L 94.9 160.9 L 97.8 161.9 L 100.7 160.7 L 103.6 160.5 L 106.5 158.5 L 109.4 162.3 L 112.2 162.4 L 115.1 162.5 L 118.0 162.0 L 120.9 162.0 L 123.8 162.1 L 126.7 162.5 L 129.6 160.1 L 132.5 161.2 L 135.4 160.2 L 138.2 161.3 L 141.1 162.6 L 144.0 160.5 L 146.9 159.0 L 149.8 159.9 L 152.7 160.6 L 155.6 158.4 L 158.5 157.5 L 161.4 157.4 L 164.3 159.4 L 167.1 157.9 L 170.0 155.1 L 172.9 155.9 L 175.8 158.3 L 178.7 158.9 L 181.6 159.1 L 184.5 158.9 L 187.4 159.5 L 190.3 157.6 L 193.2 156.6 L 196.0 157.1 L 198.9 155.4 L 201.8 152.3 L 204.7 150.9 L 207.6 151.7 L 210.5 148.7 L 213.4 150.3 L 216.3 148.9 L 219.2 148.0 L 222.0 145.4 L 224.9 147.7 L 227.8 151.5 L 230.7 152.4 L 233.6 152.8 L 236.5 153.0 L 239.4 152.7 L 242.3 153.0 L 245.2 153.5 L 248.1 151.8 L 250.9 147.7 L 253.8 147.6 L 256.7 144.6 L 259.6 146.5 L 262.5 149.9 L 265.4 150.4 L 268.3 151.1 L 271.2 149.0 L 274.1 149.8 L 276.9 149.3 L 279.8 150.5 L 282.7 149.7 L 285.6 150.1 L 288.5 149.7 L 291.4 151.8 L 294.3 152.4 L 297.2 153.2 L 300.1 153.6 L 303.0 151.5 L 305.8 152.3 L 308.7 149.9 L 311.6 147.2 L 314.5 146.8 L 317.4 143.9 L 320.3 141.8 L 323.2 140.2 L 326.1 138.3 L 329.0 138.4 L 331.9 138.5 L 334.7 136.1 L 337.6 134.6 L 340.5 135.3 L 343.4 136.6 L 346.3 135.7 L 349.2 137.1 L 352.1 135.5 L 355.0 138.7 L 357.9 138.6 L 360.7 140.0 L 363.6 138.3 L 366.5 136.7 L 369.4 136.8 L 372.3 138.0 L 375.2 138.8 L 378.1 136.6 L 381.0 136.4 L 383.9 135.9 L 386.8 136.5 L 389.6 137.1 L 392.5 133.6 L 395.4 132.6 L 398.3 133.2 L 401.2 131.2 L 404.1 130.9 L 407.0 134.9 L 409.9 132.9 L 412.8 132.2 L 415.7 128.9 L 418.5 129.1 L 421.4 128.0 L 424.3 130.3 L 427.2 128.4 L 430.1 128.5 L 433.0 128.3 L 435.9 124.2 L 438.8 121.0 L 441.7 119.7 L 444.5 120.4 L 447.4 118.4 L 450.3 116.5 L 453.2 116.4 L 456.1 116.7 L 459.0 114.3 L 461.9 114.0 L 464.8 113.9 L 467.7 112.9 L 470.6 111.0 L 473.4 109.1 L 476.3 109.6 L 479.2 107.7 L 482.1 108.2 L 485.0 108.6 L 487.9 106.6 L 490.8 104.7 L 493.7 102.6 L 496.6 101.4 L 499.5 97.7 L 502.3 97.0 L 505.2 97.3 L 508.1 94.7 L 511.0 95.3 L 513.9 94.6 L 516.8 90.9 L 519.7 91.9 L 522.6 93.4 L 525.5 91.7 L 528.3 92.0 L 531.2 90.8 L 534.1 92.7 L 537.0 91.5 L 539.9 90.5 L 542.8 91.1 L 545.7 93.3 L 548.6 91.6 L 551.5 91.9 L 554.4 92.3 L 557.2 92.3 L 560.1 90.6 L 563.0 89.4 L 565.9 91.0 L 568.8 90.4 L 571.7 91.8 L 574.6 92.4 L 577.5 95.3 L 580.4 92.9 L 583.3 92.8 L 586.1 92.7 L 589.0 94.3 L 591.9 93.2 L 594.8 97.4 L 597.7 98.6 L 600.6 97.8 L 603.5 94.2 L 606.4 95.2 L 609.3 94.3 L 612.1 93.4 L 615.0 91.9 L 617.9 91.8 L 620.8 91.3 L 623.7 91.5 L 626.6 90.4 L 629.5 89.6 L 632.4 87.6 L 635.3 85.7 L 638.2 85.4 L 641.0 84.8 L 643.9 83.2 L 646.8 81.3 L 649.7 83.7 L 652.6 86.2 L 655.5 83.2 L 658.4 82.1 L 661.3 82.4 L 664.2 80.7 L 667.1 78.6 L 669.9 78.3 L 672.8 77.6 L 675.7 75.1 L 678.6 75.0 L 681.5 73.7 L 684.4 74.2 L 687.3 74.3 L 690.2 73.9 L 693.1 73.4 L 695.9 75.8 L 698.8 77.1 L 701.7 76.0 L 704.6 74.5 L 707.5 74.8 L 710.4 75.0 L 713.3 73.6 L 716.2 74.2 L 719.1 71.6 L 722.0 70.8 L 724.8 71.9 L 727.7 70.8 L 730.6 69.4 L 733.5 69.0 L 736.4 68.9 L 739.3 68.5 L 742.2 67.4 L 745.1 70.5 L 748.0 68.4 L 750.8 67.6 L 753.7 68.3 L 756.6 67.0 L 759.5 67.3 L 762.4 67.0 L 765.3 66.0 L 768.2 64.1 L 771.1 64.3 L 774.0 62.6 L 776.9 61.8 L 779.7 60.9 L 782.6 60.0 L 785.5 59.4 L 788.4 57.4 L 791.3 59.2 L 794.2 60.2 L 797.1 60.8 L 800.0 63.1 L 802.9 64.5 L 805.8 64.0 L 808.6 60.2 L 811.5 60.3 L 814.4 63.0 L 817.3 62.4 L 820.2 57.1 L 823.1 56.3 L 826.0 56.0 L 828.9 54.0 L 831.8 53.5 L 834.6 54.3 L 837.5 53.9 L 840.4 51.9 L 843.3 53.0 L 846.2 49.7 L 849.1 48.8 L 852.0 49.0 L 854.9 51.9 L 857.8 51.9 L 860.7 51.7 L 863.5 51.0 L 866.4 50.3 L 869.3 47.7 L 872.2 47.3 L 875.1 48.1 L 878.0 48.5 L 880.9 47.2 L 883.8 46.9 L 886.7 43.9 L 889.6 43.0 L 892.4 41.1 L 895.3 39.7 L 898.2 38.7 L 901.1 36.6 L 904.0 35.1" fill="none" stroke="#c14741" stroke-width="1.4"/></svg>